<!DOCTYPE svg PUBLIC "-//W3C//DTD SVG 1.1//EN" "http://www.w3.org/Graphics/SVG/1.1/DTD/svg11.dtd">
<!-- Uploaded to: SVG Repo, www.svgrepo.com, Transformed by: SVG Repo Mixer Tools -->
<svg fill="#0D1F67" width="800px" height="800px" viewBox="0 0 24 24" id="sign-out-alt-4" data-name="Flat Line" xmlns="http://www.w3.org/2000/svg" class="icon flat-line">
<g id="SVGRepo_bgCarrier" stroke-width="0"/>
<g id="SVGRepo_tracerCarrier" stroke-linecap="round" stroke-linejoin="round"/>
<g id="SVGRepo_iconCarrier">
<path id="secondary" d="M20.24,19.19l-6,1.5a1,1,0,0,1-1.24-1V4.28a1,1,0,0,1,1.24-1l6,1.5a1,1,0,0,1,.76,1V18.22A1,1,0,0,1,20.24,19.19Z" style="fill: #A4BEF2; stroke-width: 2;"/>
<polyline id="primary" points="6 15 3 12 6 9" style="fill: none; stroke: #0D1F67; stroke-linecap: round; stroke-linejoin: round; stroke-width: 2;"/>
<path id="primary-2" data-name="primary" d="M13,6H10A1,1,0,0,0,9,7V8" style="fill: none; stroke: #0D1F67; stroke-linecap: round; stroke-linejoin: round; stroke-width: 2;"/>
<path id="primary-3" data-name="primary" d="M9,16v1a1,1,0,0,0,1,1h3" style="fill: none; stroke: #0D1F67; stroke-linecap: round; stroke-linejoin: round; stroke-width: 2;"/>
<path id="primary-4" data-name="primary" d="M3,12H9m12,6.22V5.78a1,1,0,0,0-.76-1l-6-1.5a1,1,0,0,0-1.24,1V19.72a1,1,0,0,0,1.24,1l6-1.5A1,1,0,0,0,21,18.22Z" style="fill: none; stroke: #0D1F67; stroke-linecap: round; stroke-linejoin: round; stroke-width: 2;"/>
</g>
</svg>