<!DOCTYPE svg PUBLIC "-//W3C//DTD SVG 1.1//EN" "http://www.w3.org/Graphics/SVG/1.1/DTD/svg11.dtd">
<!-- Uploaded to: SVG Repo, www.svgrepo.com, Transformed by: SVG Repo Mixer Tools -->
<svg width="800px" height="800px" viewBox="0 0 48 48" xmlns="http://www.w3.org/2000/svg" fill="#06134D">
<g id="SVGRepo_bgCarrier" stroke-width="0"/>
<g id="SVGRepo_tracerCarrier" stroke-linecap="round" stroke-linejoin="round"/>
<g id="SVGRepo_iconCarrier"> <title>comment-forum-solid</title> <g id="Layer_2" data-name="Layer 2"> <g id="invisible_box" data-name="invisible box"> <rect width="48" height="48" fill="none"/> </g> <g id="icons_Q2" data-name="icons Q2"> <path d="M31.9,6H4.1A2,2,0,0,0,2,8V36a1,1,0,0,0,1,1,1.3,1.3,0,0,0,.8-.3L13,28H31.9A2,2,0,0,0,34,26V8a2,2,0,0,0-2.1-2Z"/> <path d="M43.9,15H38V32H14v3a2,2,0,0,0,2.1,2H35l9.2,8.7a1.3,1.3,0,0,0,.8.3,1,1,0,0,0,1-1V17A2,2,0,0,0,43.9,15Z"/> </g> </g> </g>
</svg>